<?xml version="1.0" encoding="UTF-8" standalone="no"?>
<!-- Created with Inkscape (http://www.inkscape.org/) -->

<svg
   version="1.1"
   id="svg2"
   width="533.33331"
   height="533.33331"
   viewBox="0 0 533.33331 533.33331"
   xmlns="http://www.w3.org/2000/svg"
   xmlns:svg="http://www.w3.org/2000/svg">
  <defs
     id="defs6">
    <linearGradient
       x1="0"
       y1="0"
       x2="1"
       y2="0"
       gradientUnits="userSpaceOnUse"
       gradientTransform="matrix(385.34857,0,0,-385.34857,7.3257074,199.9998)"
       spreadMethod="pad"
       id="linearGradient26">
      <stop
         style="stop-opacity:1;stop-color:#dc0000"
         offset="0"
         id="stop22" />
      <stop
         style="stop-opacity:1;stop-color:#006600"
         offset="1"
         id="stop24" />
    </linearGradient>
    <clipPath
       clipPathUnits="userSpaceOnUse"
       id="clipPath36">
      <path
         d="M 0,400 H 400 V 0 H 0 Z"
         id="path34" />
    </clipPath>
  </defs>
  <g
     id="g8"
     transform="matrix(1.3333333,0,0,-1.3333333,0,533.33333)">
    <g
       id="g10">
      <g
         id="g12">
        <g
           id="g18">
          <g
             id="g20">
            <path
               d="M 7.326,200 C 7.326,93.588 93.589,7.325 200,7.325 v 0 c 106.411,0 192.674,86.263 192.674,192.675 v 0 c 0,106.411 -86.263,192.674 -192.674,192.674 v 0 C 93.589,392.674 7.326,306.411 7.326,200"
               style="fill:url(#linearGradient26);stroke:none"
               id="path28" />
          </g>
        </g>
      </g>
    </g>
    <g
       id="g30">
      <g
         id="g32"
         clip-path="url(#clipPath36)">
        <g
           id="g38"
           transform="translate(200.0001,391.63)">
          <path
             d="m 0,0 c -105.665,0 -191.63,-85.965 -191.63,-191.63 0,-105.666 85.965,-191.63 191.63,-191.63 105.665,0 191.63,85.964 191.63,191.63 C 191.63,-85.965 105.665,0 0,0 m 0,-385.349 c -26.152,0 -51.521,5.122 -75.405,15.224 -23.068,9.757 -43.784,23.725 -61.575,41.515 -17.79,17.79 -31.758,38.508 -41.515,61.576 -10.102,23.883 -15.224,49.253 -15.224,75.404 0,26.151 5.122,51.521 15.224,75.404 9.757,23.068 23.725,43.785 41.515,61.575 17.791,17.791 38.507,31.758 61.575,41.516 C -51.521,-3.033 -26.152,2.088 0,2.088 c 26.151,0 51.521,-5.121 75.404,-15.223 23.068,-9.758 43.785,-23.725 61.576,-41.516 17.79,-17.79 31.758,-38.507 41.514,-61.575 10.102,-23.883 15.224,-49.253 15.224,-75.404 0,-26.151 -5.122,-51.521 -15.224,-75.404 C 168.738,-290.102 154.77,-310.82 136.98,-328.61 119.189,-346.4 98.472,-360.368 75.404,-370.125 51.521,-380.227 26.151,-385.349 0,-385.349"
             style="fill:#000000;fill-opacity:1;fill-rule:nonzero;stroke:none"
             id="path40" />
        </g>
        <g
           id="g42"
           transform="translate(119.7423,169.0773)">
          <path
             d="m 0,0 c 0,-20.719 16.186,-37.657 36.603,-38.86 1.261,-0.075 2.326,0.923 2.326,2.186 0,1.157 -0.9,2.117 -2.055,2.185 C 18.75,-33.426 4.379,-18.391 4.379,0 c 0,18.391 14.371,33.426 32.495,34.489 1.155,0.068 2.055,1.028 2.055,2.185 0,1.263 -1.065,2.261 -2.326,2.186 C 16.186,37.657 0,20.719 0,0"
             style="fill:#ffffff;fill-opacity:1;fill-rule:nonzero;stroke:none"
             id="path44" />
        </g>
        <g
           id="g46"
           transform="translate(123.904,166.8866)">
          <path
             d="m 0,0 h 32.576 c 1.21,0 2.191,0.981 2.191,2.191 0,1.21 -0.981,2.19 -2.191,2.19 H 0 c -1.21,0 -2.191,-0.98 -2.191,-2.19 C -2.191,0.981 -1.21,0 0,0"
             style="fill:#ffffff;fill-opacity:1;fill-rule:nonzero;stroke:none"
             id="path48" />
        </g>
        <g
           id="g50"
           transform="translate(280.2577,169.0773)">
          <path
             d="m 0,0 c 0,-20.719 -16.186,-37.657 -36.603,-38.86 -1.261,-0.075 -2.326,0.923 -2.326,2.186 0,1.157 0.9,2.117 2.055,2.185 18.124,1.063 32.495,16.098 32.495,34.489 0,18.391 -14.371,33.426 -32.495,34.489 -1.155,0.068 -2.055,1.028 -2.055,2.185 0,1.263 1.065,2.261 2.326,2.186 C -16.186,37.657 0,20.719 0,0"
             style="fill:#ffffff;fill-opacity:1;fill-rule:nonzero;stroke:none"
             id="path52" />
        </g>
        <g
           id="g54"
           transform="translate(276.096,166.8866)">
          <path
             d="m 0,0 h -32.576 c -1.21,0 -2.191,0.981 -2.191,2.191 0,1.21 0.981,2.19 2.191,2.19 H 0 c 1.21,0 2.191,-0.98 2.191,-2.19 C 2.191,0.981 1.21,0 0,0"
             style="fill:#ffffff;fill-opacity:1;fill-rule:nonzero;stroke:none"
             id="path56" />
        </g>
        <g
           id="g58"
           transform="translate(232.1128,289.8724)">
          <path
             d="m 0,0 c -1.337,-1.938 -3.458,-2.794 -4.741,-1.913 -1.282,0.885 -1.232,3.174 0.105,5.112 1.336,1.938 3.458,2.795 4.74,1.913 C 1.387,4.227 1.337,1.938 0,0 m -59.486,-1.913 c -1.278,-0.881 -3.4,-0.025 -4.741,1.913 -1.336,1.938 -1.382,4.227 -0.104,5.112 1.282,0.882 3.404,0.025 4.74,-1.913 1.341,-1.938 1.387,-4.227 0.105,-5.112 M 99.304,18.228 C 96.789,24.142 63.521,52.682 51.542,56.379 39.567,60.075 -6.269,55.639 -7.009,54.604 -7.748,53.568 7.923,41 5.706,39.521 3.488,38.042 -5.681,54.604 -31.41,54.604 c -25.725,0 -33.711,-15.229 -35.632,-14.047 -1.926,1.182 9.314,11.829 11.678,13.011 2.369,1.182 -45.54,6.064 -56.629,2.811 -11.089,-3.254 -52.047,-33.565 -52.787,-43.915 -0.739,-10.355 -0.447,-12.276 0,-12.276 0.443,0 9.164,5.618 9.904,3.847 0.739,-1.775 -7.836,-11.829 -3.4,-17.301 4.435,-5.471 6.064,3.547 7.543,2.515 1.479,-1.036 -1.479,-9.168 -0.297,-11.833 1.183,-2.661 10.647,-9.757 13.604,-10.054 2.958,-0.296 11.236,10.204 13.308,8.872 2.067,-1.328 -6.065,-9.018 -5.175,-18.04 0.885,-9.018 13.604,-13.011 15.525,-11.089 1.921,1.921 1.625,3.993 3.55,3.55 1.921,-0.443 2.807,-10.35 8.872,-13.307 6.06,-2.957 12.271,-2.218 13.453,-1.036 1.182,1.182 2.515,7.096 4.436,6.507 1.921,-0.593 1.775,-6.95 3.697,-7.393 1.921,-0.447 11.536,4.14 13.161,13.308 1.624,9.168 -2.958,9.907 -0.886,13.453 2.068,3.551 3.4,6.065 2.068,9.168 -1.329,3.104 -10.054,22.772 -10.35,23.808 -0.297,1.032 1.332,21.289 0.442,23.507 -0.885,2.218 -10.885,12.46 -10.053,13.161 1.361,1.149 12.125,-6.912 13.808,-10.571 1.888,-4.11 -3.771,-14.97 -1.24,-25.358 0.697,-2.865 6.95,-8.428 7.096,-10.35 0.151,-1.925 0.447,-12.864 2.811,-12.572 2.364,0.297 5.472,14.64 7.836,13.754 2.368,-0.889 -5.025,-25.136 -8.872,-29.279 0,0 12.865,-7.096 14.047,-15.083 1.182,-7.981 13.813,-109.674 40.716,-103.05 12.066,2.97 10.696,18.169 8.955,20.976 -1.203,1.951 -4.002,2.857 -6.959,0.046 -2.957,-2.807 -1.149,-10.233 -4.549,-9.791 -3.399,0.443 -7.259,5.171 -8.737,25.283 -1.479,20.107 1.386,75.04 20.165,81.991 0,0 -11.774,25.044 -7.744,28.611 1.387,1.228 5.063,-13.069 6.951,-13.011 1.883,0.054 5.655,18.65 10.35,23.215 3.149,3.061 -1.7,23.858 0.518,25.929 2.218,2.072 11.26,9.728 12.476,8.559 1.032,-0.998 -8.116,-8.763 -8.558,-11.72 -0.443,-2.958 -2.515,-12.568 0.885,-22.768 0,0 -12.877,-24.372 -11.829,-28.837 1.274,-5.434 1.203,-10.016 0.167,-13.859 -1.035,-3.846 8.705,-18.52 12.401,-18.816 3.697,-0.297 3.254,7.539 4.733,7.689 1.478,0.147 5.029,-6.95 5.768,-7.84 0.739,-0.885 18.925,-1.031 21.143,16.119 0,0 2.957,-4.582 7.247,-3.4 4.285,1.182 13.01,5.764 11.089,14.64 -1.921,8.871 -4.878,13.896 -2.957,14.786 1.921,0.885 5.914,-7.393 8.721,-8.283 2.811,-0.886 18.487,2.514 17.597,10.054 -0.885,7.543 -2.957,9.907 -0.885,10.943 2.067,1.036 3.4,-6.061 5.471,-5.321 2.068,0.739 5.468,2.067 4.286,9.757 -1.182,7.689 -7.243,7.986 -5.025,9.314 2.218,1.332 5.467,-3.989 7.096,-3.4 1.625,0.593 2.218,12.125 -0.296,18.04"
             style="fill:#ffffff;fill-opacity:1;fill-rule:nonzero;stroke:none"
             id="path60" />
        </g>
        <g
           id="g62"
           transform="translate(173.6861,241.2459)">
          <path
             d="M 0,0 C 0,0 6.894,-5.527 6.929,-8.597 7.138,-26.906 -5.325,-46.92 -6.787,-45.806 -8.249,-44.692 -0.071,-23.44 0,0"
             style="fill:#ffffff;fill-opacity:1;fill-rule:nonzero;stroke:none"
             id="path64" />
        </g>
        <g
           id="g66"
           transform="translate(227.393,242.3597)">
          <path
             d="M 0,0 C 0,0 -6.054,-6.641 -6.09,-9.711 -6.298,-28.019 6.165,-48.033 7.627,-46.92 9.088,-45.806 0.071,-23.44 0,0"
             style="fill:#ffffff;fill-opacity:1;fill-rule:nonzero;stroke:none"
             id="path68" />
        </g>
        <g
           id="g70"
           transform="translate(103.7621,75.075)">
          <path
             d="m 0,0 v 1.143 c 1.725,0 2.901,0.465 3.529,1.396 0.627,0.931 0.942,2.552 0.942,4.862 v 24.594 c 0,2.377 -0.309,4.021 -0.925,4.929 C 2.93,37.833 1.748,38.287 0,38.287 v 1.143 h 14.118 v -1.143 c -1.659,0 -2.807,-0.471 -3.446,-1.412 C 10.033,35.934 9.714,34.309 9.714,32.001 V 20.102 l 12.881,12.666 c 1.368,1.366 2.051,2.464 2.051,3.295 0,1.146 -0.832,1.887 -2.495,2.224 v 1.143 h 14.892 v -1.143 h -1.949 c -1.189,0 -2.55,-0.398 -4.085,-1.193 C 29.474,36.298 28.067,35.25 26.79,33.95 L 14.526,21.825 30.824,5.312 C 32.437,3.639 33.682,2.555 34.556,2.058 35.43,1.561 36.65,1.256 38.22,1.143 V 0 H 28.838 L 9.714,19.328 V 7.407 c 0,-2.313 0.308,-3.934 0.925,-4.867 0.616,-0.932 1.775,-1.397 3.479,-1.397 l 0,-1.143 z"
             style="fill:#ffffff;fill-opacity:1;fill-rule:nonzero;stroke:none"
             id="path72" />
        </g>
        <g
           id="g74"
           transform="translate(170.7552,99.5799)">
          <path
             d="M 0,0 H 1.177 V -9.58 H 0 c -0.426,1.681 -0.94,2.733 -1.546,3.16 -0.604,0.425 -1.928,0.639 -3.967,0.639 h -9.781 v -14.118 c 0,-0.987 0.219,-1.681 0.655,-2.084 0.438,-0.404 1.182,-0.606 2.236,-0.606 h 6.89 c 2.465,0 4.169,0.135 5.11,0.403 0.941,0.269 1.737,0.768 2.386,1.497 0.651,0.727 1.345,1.91 2.084,3.545 h 1.177 l -1.815,-7.361 h -28.405 v 1.143 c 1.771,0 2.959,0.454 3.564,1.362 0.605,0.909 0.908,2.519 0.908,4.829 V 7.49 c 0,2.4 -0.314,4.049 -0.941,4.946 -0.628,0.897 -1.805,1.346 -3.531,1.346 v 1.143 H 3.429 V 8.337 h -0.74 c -0.403,1.882 -0.98,3.131 -1.73,3.748 -0.752,0.615 -2.382,0.924 -4.892,0.924 H -15.294 V -3.865 h 11.025 c 1.501,0 2.527,0.268 3.077,0.806 C -0.644,-2.521 -0.246,-1.502 0,0"
             style="fill:#ffffff;fill-opacity:1;fill-rule:nonzero;stroke:none"
             id="path76" />
        </g>
        <g
           id="g78"
           transform="translate(209.9163,113.3621)">
          <path
             d="M 0,0 V 1.143 H 11.9 V 0 C 9.995,0 8.673,-0.448 7.934,-1.345 7.194,-2.241 6.824,-3.866 6.824,-6.219 V -38.287 H 5.616 L -22.319,-4 v -27.693 c 0,-1.952 0.397,-3.348 1.193,-4.19 0.795,-0.841 2.123,-1.262 3.983,-1.262 v -1.142 h -11.966 v 1.142 c 1.904,0 3.193,0.499 3.865,1.498 0.673,0.998 1.009,2.752 1.009,5.265 v 23.08 c 0,2.49 -0.454,4.28 -1.362,5.366 C -26.505,-0.848 -28,-0.202 -30.085,0 v 1.143 h 10.12 l 24.773,-30.69 v 23.06 c 0,2.42 -0.342,4.105 -1.026,5.058 C 3.099,-0.477 1.838,0 0,0"
             style="fill:#ffffff;fill-opacity:1;fill-rule:nonzero;stroke:none"
             id="path80" />
        </g>
        <g
           id="g82"
           transform="translate(255.1947,108.8914)">
          <path
             d="M 0,0 -8.874,-13.983 V -26.41 c 0,-2.402 0.308,-4.047 0.925,-4.934 0.616,-0.886 1.753,-1.33 3.412,-1.33 v -1.142 h -14.388 v 1.142 c 1.95,0 3.244,0.472 3.883,1.415 0.639,0.943 0.958,2.559 0.958,4.849 v 12.427 l -8.403,13.075 c -1.39,2.174 -2.522,3.597 -3.396,4.269 -0.874,0.672 -2.084,1.042 -3.63,1.11 v 1.142 h 15.429 V 4.471 c -2.711,0 -4.065,-0.617 -4.065,-1.849 0,-0.56 0.268,-1.255 0.806,-2.083 l 7.796,-11.945 6.243,9.899 c 0.919,1.478 1.378,2.742 1.378,3.795 0,1.454 -0.87,2.183 -2.611,2.183 V 5.613 H 6.286 V 4.471 C 4.829,4.381 3.703,4.062 2.908,3.513 2.112,2.963 1.144,1.792 0,0"
             style="fill:#ffffff;fill-opacity:1;fill-rule:nonzero;stroke:none"
             id="path84" />
        </g>
        <g
           id="g86"
           transform="translate(271.0296,93.4617)">
          <path
             d="M 0,0 H 11.118 L 5.527,16.707 Z m 12.503,-18.387 v 1.143 c 2.261,0 3.391,0.786 3.391,2.359 0,0.45 -0.101,0.955 -0.303,1.518 L 11.928,-2.42 H -0.73 l -2.691,-7.918 c -0.673,-1.999 -1.009,-3.447 -1.009,-4.346 0,-1.662 1.039,-2.515 3.118,-2.56 v -1.143 h -10.186 v 1.143 c 1.458,0.202 2.591,0.685 3.398,1.449 0.808,0.764 1.626,2.347 2.456,4.75 L 5.261,21.48 h 4.057 l 11.45,-33.973 c 0.672,-1.999 1.373,-3.291 2.101,-3.875 0.73,-0.584 1.902,-0.876 3.517,-0.876 v -1.143 z"
             style="fill:#ffffff;fill-opacity:1;fill-rule:nonzero;stroke:none"
             id="path88" />
        </g>
        <g
           id="g90"
           transform="translate(108.0433,58.1473)">
          <path
             d="m 0,0 v -0.977 h -4.921 v 6.035 h 4.745 V 4.081 H -3.657 V 2.565 h 3.22 V 1.589 h -3.22 V 0 Z"
             style="fill:#ffffff;fill-opacity:1;fill-rule:nonzero;stroke:none"
             id="path92" />
        </g>
        <g
           id="g94"
           transform="translate(111.849,60.7293)">
          <path
             d="M 0,0 V -3.559 H -1.122 V 2.476 H 0.321 L 2.989,-2.21 C 2.938,-1.775 2.912,-1.383 2.912,-1.031 V 2.476 H 4.034 V -3.559 H 2.553 l -2.63,4.647 C -0.052,0.862 -0.032,0.659 -0.02,0.478 -0.007,0.297 0,0.138 0,0"
             style="fill:#ffffff;fill-opacity:1;fill-rule:nonzero;stroke:none"
             id="path96" />
        </g>
        <g
           id="g98"
           transform="translate(121.6341,58.0789)">
          <path
             d="m 0,0 c 0.765,0 1.295,0.383 1.589,1.147 l 1.1,-0.415 C 2.452,0.149 2.104,-0.283 1.646,-0.567 1.188,-0.852 0.64,-0.994 0,-0.994 c -0.646,0 -1.195,0.124 -1.649,0.371 -0.455,0.247 -0.8,0.604 -1.039,1.072 -0.239,0.469 -0.358,1.031 -0.358,1.688 0,0.662 0.114,1.222 0.343,1.678 0.228,0.457 0.565,0.805 1.011,1.043 0.445,0.239 0.991,0.358 1.636,0.358 0.708,0 1.285,-0.142 1.73,-0.426 C 2.119,4.506 2.433,4.089 2.612,3.537 L 1.499,3.233 C 1.404,3.536 1.22,3.776 0.944,3.955 0.668,4.134 0.344,4.223 -0.03,4.223 -0.602,4.223 -1.035,4.046 -1.33,3.691 -1.626,3.338 -1.773,2.819 -1.773,2.137 -1.773,1.675 -1.706,1.284 -1.57,0.968 -1.435,0.65 -1.234,0.41 -0.971,0.246 -0.706,0.082 -0.383,0 0,0"
             style="fill:#ffffff;fill-opacity:1;fill-rule:nonzero;stroke:none"
             id="path100" />
        </g>
        <g
           id="g102"
           transform="translate(131.4827,60.2156)">
          <path
             d="m 0,0 c 0,0.651 -0.154,1.161 -0.463,1.531 -0.308,0.37 -0.74,0.555 -1.297,0.555 -0.565,0 -1.003,-0.184 -1.31,-0.551 C -3.379,1.169 -3.533,0.657 -3.533,0 c 0,-0.439 0.071,-0.819 0.214,-1.139 0.142,-0.32 0.346,-0.566 0.61,-0.739 0.265,-0.173 0.577,-0.259 0.94,-0.259 0.566,0 1.001,0.186 1.309,0.557 C -0.153,-1.209 0,-0.683 0,0 m 1.289,0 c 0,-0.628 -0.126,-1.177 -0.379,-1.646 -0.253,-0.47 -0.608,-0.835 -1.066,-1.095 -0.458,-0.26 -0.996,-0.39 -1.613,-0.39 -0.63,0 -1.173,0.127 -1.627,0.379 -0.455,0.253 -0.802,0.613 -1.045,1.082 -0.243,0.468 -0.365,1.024 -0.365,1.67 0,0.646 0.121,1.198 0.363,1.657 0.241,0.46 0.589,0.813 1.045,1.057 0.455,0.243 1.002,0.365 1.638,0.365 0.64,0 1.186,-0.123 1.64,-0.37 C 0.334,2.462 0.683,2.108 0.925,1.649 1.168,1.189 1.289,0.64 1.289,0"
             style="fill:#ffffff;fill-opacity:1;fill-rule:nonzero;stroke:none"
             id="path104" />
        </g>
        <g
           id="g106"
           transform="translate(137.9906,57.0848)">
          <path
             d="M 0,0 C -0.554,0 -1.022,0.091 -1.405,0.272 -1.787,0.453 -2.077,0.719 -2.274,1.069 -2.472,1.419 -2.57,1.845 -2.57,2.348 V 6.12 h 1.263 V 2.445 c 0,-0.476 0.114,-0.838 0.341,-1.085 0.227,-0.247 0.561,-0.371 1,-0.371 0.451,0 0.798,0.13 1.041,0.388 0.242,0.259 0.363,0.629 0.363,1.111 V 6.12 H 2.702 V 2.411 C 2.702,1.903 2.596,1.47 2.383,1.109 2.171,0.75 1.863,0.475 1.46,0.285 1.058,0.095 0.571,0 0,0"
             style="fill:#ffffff;fill-opacity:1;fill-rule:nonzero;stroke:none"
             id="path108" />
        </g>
        <g
           id="g110"
           transform="translate(147.5658,61.3553)">
          <path
             d="m 0,0 c 0,0.288 -0.093,0.505 -0.278,0.65 -0.187,0.147 -0.465,0.219 -0.836,0.219 h -1.618 v -1.781 h 1.652 c 0.354,0 0.623,0.079 0.806,0.239 C -0.092,-0.513 0,-0.289 0,0 M -2.732,-1.894 V -4.185 H -3.996 V 1.85 h 3.015 C -0.262,1.85 0.294,1.695 0.685,1.386 1.076,1.075 1.271,0.631 1.271,0.051 1.271,-0.371 1.151,-0.736 0.912,-1.043 0.672,-1.35 0.348,-1.552 -0.061,-1.649 L 1.571,-4.185 H 0.149 l -1.4,2.291 z"
             style="fill:#ffffff;fill-opacity:1;fill-rule:nonzero;stroke:none"
             id="path112" />
        </g>
        <g
           id="g114"
           transform="translate(154.2366,62.2762)">
          <path
             d="m 0,0 c -0.028,-0.114 -0.068,-0.252 -0.12,-0.411 -0.051,-0.16 -0.088,-0.274 -0.111,-0.339 l -0.634,-1.863 h 1.734 l -0.65,1.902 C 0.179,-0.594 0.142,-0.476 0.107,-0.355 0.073,-0.236 0.037,-0.117 0,0 m -1.147,-3.563 -0.537,-1.542 h -1.262 l 2.201,6.034 h 1.49 L 2.938,-5.105 H 1.687 l -0.535,1.542 z"
             style="fill:#ffffff;fill-opacity:1;fill-rule:nonzero;stroke:none"
             id="path116" />
        </g>
        <g
           id="g118"
           transform="translate(162.6126,58.074)">
          <path
             d="M 0,0 C 0.328,0 0.646,0.048 0.955,0.144 1.264,0.239 1.502,0.361 1.67,0.51 V 1.345 H 0.197 V 2.279 H 2.826 V 0.061 C 2.507,-0.268 2.091,-0.525 1.578,-0.711 1.065,-0.896 0.528,-0.989 -0.034,-0.989 c -0.654,0 -1.209,0.122 -1.664,0.366 -0.455,0.244 -0.802,0.6 -1.039,1.066 -0.237,0.467 -0.356,1.034 -0.356,1.699 0,0.994 0.266,1.755 0.797,2.285 0.531,0.529 1.295,0.794 2.291,0.794 0.709,0 1.288,-0.13 1.739,-0.392 C 2.186,4.568 2.507,4.175 2.698,3.649 L 1.533,3.298 C 1.407,3.604 1.21,3.835 0.942,3.992 0.674,4.149 0.358,4.228 -0.005,4.228 -0.599,4.228 -1.05,4.048 -1.357,3.688 -1.666,3.328 -1.82,2.813 -1.82,2.142 -1.82,1.459 -1.661,0.932 -1.343,0.56 -1.024,0.187 -0.577,0 0,0"
             style="fill:#ffffff;fill-opacity:1;fill-rule:nonzero;stroke:none"
             id="path120" />
        </g>
        <g
           id="g122"
           transform="translate(173.2445,58.1473)">
          <path
             d="m 0,0 v -0.977 h -4.921 v 6.035 h 4.745 V 4.081 H -3.657 V 2.565 h 3.22 V 1.589 h -3.22 V 0 Z"
             style="fill:#ffffff;fill-opacity:1;fill-rule:nonzero;stroke:none"
             id="path124" />
        </g>
        <g
           id="g126"
           transform="translate(177.1917,57.4529)">
          <path
             d="M 0,0 C 0,-0.342 -0.037,-0.645 -0.109,-0.907 -0.183,-1.17 -0.3,-1.414 -0.463,-1.64 h -0.792 c 0.168,0.203 0.305,0.425 0.411,0.668 0.106,0.243 0.158,0.473 0.158,0.69 H -1.238 V 1.024 H 0 Z"
             style="fill:#ffffff;fill-opacity:1;fill-rule:nonzero;stroke:none"
             id="path128" />
        </g>
        <g
           id="g130"
           transform="translate(189.2318,58.1473)">
          <path
             d="m 0,0 v -0.977 h -4.921 v 6.035 h 4.745 V 4.081 H -3.657 V 2.565 h 3.22 V 1.589 h -3.22 V 0 Z"
             style="fill:#ffffff;fill-opacity:1;fill-rule:nonzero;stroke:none"
             id="path132" />
        </g>
        <g
           id="g134"
           transform="translate(193.0374,60.7293)">
          <path
             d="M 0,0 V -3.559 H -1.122 V 2.476 H 0.321 L 2.989,-2.21 C 2.938,-1.775 2.912,-1.383 2.912,-1.031 V 2.476 H 4.034 V -3.559 H 2.553 l -2.63,4.647 C -0.052,0.862 -0.032,0.659 -0.02,0.478 -0.007,0.297 0,0.138 0,0"
             style="fill:#ffffff;fill-opacity:1;fill-rule:nonzero;stroke:none"
             id="path136" />
        </g>
        <g
           id="g138"
           transform="translate(202.8695,58.074)">
          <path
             d="M 0,0 C 0.328,0 0.646,0.048 0.955,0.144 1.264,0.239 1.502,0.361 1.67,0.51 V 1.345 H 0.197 V 2.279 H 2.826 V 0.061 C 2.507,-0.268 2.091,-0.525 1.578,-0.711 1.065,-0.896 0.528,-0.989 -0.034,-0.989 c -0.654,0 -1.209,0.122 -1.664,0.366 -0.455,0.244 -0.802,0.6 -1.039,1.066 -0.237,0.467 -0.356,1.034 -0.356,1.699 0,0.994 0.266,1.755 0.797,2.285 0.531,0.529 1.295,0.794 2.291,0.794 0.709,0 1.288,-0.13 1.739,-0.392 C 2.186,4.568 2.507,4.175 2.698,3.649 L 1.533,3.298 C 1.407,3.604 1.21,3.835 0.942,3.992 0.674,4.149 0.358,4.228 -0.005,4.228 -0.599,4.228 -1.05,4.048 -1.357,3.688 -1.666,3.328 -1.82,2.813 -1.82,2.142 -1.82,1.459 -1.661,0.932 -1.343,0.56 -1.024,0.187 -0.577,0 0,0"
             style="fill:#ffffff;fill-opacity:1;fill-rule:nonzero;stroke:none"
             id="path140" />
        </g>
        <g
           id="g142"
           transform="translate(211.1595,62.2762)">
          <path
             d="m 0,0 c -0.028,-0.114 -0.068,-0.252 -0.12,-0.411 -0.051,-0.16 -0.088,-0.274 -0.111,-0.339 l -0.634,-1.863 h 1.734 l -0.65,1.902 C 0.179,-0.594 0.142,-0.476 0.107,-0.355 0.073,-0.236 0.037,-0.117 0,0 m -1.147,-3.563 -0.537,-1.542 h -1.262 l 2.201,6.034 h 1.49 L 2.938,-5.105 H 1.687 l -0.535,1.542 z"
             style="fill:#ffffff;fill-opacity:1;fill-rule:nonzero;stroke:none"
             id="path144" />
        </g>
        <g
           id="g146"
           transform="translate(219.5345,58.074)">
          <path
             d="M 0,0 C 0.328,0 0.646,0.048 0.955,0.144 1.264,0.239 1.502,0.361 1.67,0.51 V 1.345 H 0.197 V 2.279 H 2.826 V 0.061 C 2.507,-0.268 2.091,-0.525 1.578,-0.711 1.065,-0.896 0.528,-0.989 -0.034,-0.989 c -0.654,0 -1.209,0.122 -1.664,0.366 -0.455,0.244 -0.802,0.6 -1.039,1.066 -0.237,0.467 -0.356,1.034 -0.356,1.699 0,0.994 0.266,1.755 0.797,2.285 0.531,0.529 1.295,0.794 2.291,0.794 0.709,0 1.288,-0.13 1.739,-0.392 C 2.186,4.568 2.507,4.175 2.698,3.649 L 1.533,3.298 C 1.407,3.604 1.21,3.835 0.942,3.992 0.674,4.149 0.358,4.228 -0.005,4.228 -0.599,4.228 -1.05,4.048 -1.357,3.688 -1.666,3.328 -1.82,2.813 -1.82,2.142 -1.82,1.459 -1.661,0.932 -1.343,0.56 -1.024,0.187 -0.577,0 0,0"
             style="fill:#ffffff;fill-opacity:1;fill-rule:nonzero;stroke:none"
             id="path148" />
        </g>
        <g
           id="g150"
           transform="translate(230.1673,58.1473)">
          <path
             d="m 0,0 v -0.977 h -4.921 v 6.035 h 4.745 V 4.081 H -3.657 V 2.565 h 3.22 V 1.589 h -3.22 V 0 Z"
             style="fill:#ffffff;fill-opacity:1;fill-rule:nonzero;stroke:none"
             id="path152" />
        </g>
        <g
           id="g154"
           transform="translate(234.1146,57.4529)">
          <path
             d="M 0,0 C 0,-0.342 -0.037,-0.645 -0.109,-0.907 -0.183,-1.17 -0.3,-1.414 -0.463,-1.64 h -0.792 c 0.168,0.203 0.305,0.425 0.411,0.668 0.106,0.243 0.158,0.473 0.158,0.69 H -1.238 V 1.024 H 0 Z"
             style="fill:#ffffff;fill-opacity:1;fill-rule:nonzero;stroke:none"
             id="path156" />
        </g>
        <g
           id="g158"
           transform="translate(246.1546,58.1473)">
          <path
             d="m 0,0 v -0.977 h -4.921 v 6.035 h 4.745 V 4.081 H -3.657 V 2.565 h 3.22 V 1.589 h -3.22 V 0 Z"
             style="fill:#ffffff;fill-opacity:1;fill-rule:nonzero;stroke:none"
             id="path160" />
        </g>
        <g
           id="g162"
           transform="translate(249.9603,60.8279)">
          <path
             d="m 0,0 v -3.657 h -1.122 v 6.034 h 1.691 l 1.079,-3.375 c 0.049,-0.188 0.099,-0.377 0.151,-0.567 0.051,-0.19 0.101,-0.379 0.149,-0.568 0.031,0.109 0.062,0.217 0.09,0.323 0.029,0.108 0.059,0.215 0.088,0.325 0.03,0.108 0.061,0.214 0.093,0.32 L 3.328,2.377 H 5.011 V -3.657 H 3.889 V 0 c 0,0.083 0.004,0.249 0.01,0.499 0.007,0.25 0.018,0.522 0.033,0.816 C 3.832,0.933 3.744,0.607 3.668,0.339 3.593,0.07 3.53,-0.14 3.481,-0.291 L 2.394,-3.657 h -0.9 L 0.407,-0.291 -0.052,1.315 C -0.034,0.984 -0.021,0.709 -0.013,0.491 -0.005,0.272 0,0.108 0,0"
             style="fill:#ffffff;fill-opacity:1;fill-rule:nonzero;stroke:none"
             id="path164" />
        </g>
        <g
           id="g166"
           transform="translate(261.5902,61.2732)">
          <path
             d="m 0,0 c 0,0.635 -0.374,0.951 -1.122,0.951 h -1.306 v -1.957 h 1.34 c 0.349,0 0.617,0.086 0.806,0.259 C -0.094,-0.574 0,-0.325 0,0 m 1.272,0.021 c 0,-0.39 -0.089,-0.737 -0.267,-1.038 -0.179,-0.301 -0.433,-0.537 -0.761,-0.707 -0.328,-0.17 -0.72,-0.255 -1.173,-0.255 h -1.499 v -2.124 h -1.263 v 6.035 h 2.711 c 0.722,0 1.278,-0.166 1.667,-0.499 C 1.077,1.101 1.272,0.63 1.272,0.021"
             style="fill:#ffffff;fill-opacity:1;fill-rule:nonzero;stroke:none"
             id="path168" />
        </g>
        <g
           id="g170"
           transform="translate(270.0824,60.2156)">
          <path
             d="m 0,0 c 0,0.651 -0.154,1.161 -0.463,1.531 -0.308,0.37 -0.74,0.555 -1.297,0.555 -0.565,0 -1.003,-0.184 -1.31,-0.551 C -3.379,1.169 -3.533,0.657 -3.533,0 c 0,-0.439 0.071,-0.819 0.214,-1.139 0.142,-0.32 0.346,-0.566 0.61,-0.739 0.265,-0.173 0.577,-0.259 0.94,-0.259 0.566,0 1.001,0.186 1.309,0.557 C -0.153,-1.209 0,-0.683 0,0 m 1.289,0 c 0,-0.628 -0.126,-1.177 -0.379,-1.646 -0.253,-0.47 -0.608,-0.835 -1.066,-1.095 -0.458,-0.26 -0.996,-0.39 -1.613,-0.39 -0.63,0 -1.173,0.127 -1.627,0.379 -0.455,0.253 -0.802,0.613 -1.045,1.082 -0.243,0.468 -0.365,1.024 -0.365,1.67 0,0.646 0.121,1.198 0.363,1.657 0.241,0.46 0.589,0.813 1.045,1.057 0.455,0.243 1.002,0.365 1.638,0.365 0.64,0 1.186,-0.123 1.64,-0.37 C 0.334,2.462 0.683,2.108 0.925,1.649 1.168,1.189 1.289,0.64 1.289,0"
             style="fill:#ffffff;fill-opacity:1;fill-rule:nonzero;stroke:none"
             id="path172" />
        </g>
        <g
           id="g174"
           transform="translate(277.3871,60.743)">
          <path
             d="M 0,0 -0.831,-3.572 H -2.33 l -1.555,6.034 h 1.281 l 0.839,-3.695 c 0.037,-0.158 0.078,-0.339 0.122,-0.544 0.044,-0.206 0.081,-0.407 0.109,-0.6 0.029,0.134 0.055,0.265 0.08,0.392 0.023,0.127 0.049,0.253 0.074,0.377 0.026,0.124 0.053,0.247 0.082,0.37 l 0.852,3.7 h 1.414 l 0.844,-3.567 c 0.028,-0.121 0.063,-0.294 0.104,-0.523 0.041,-0.228 0.081,-0.478 0.118,-0.749 0.037,0.165 0.07,0.312 0.101,0.439 0.03,0.126 0.059,0.253 0.09,0.38 0.03,0.128 0.062,0.273 0.096,0.436 L 3.096,2.462 H 4.377 L 2.817,-3.572 H 1.318 l -0.817,3.49 C 0.452,0.124 0.406,0.334 0.363,0.548 0.32,0.762 0.282,0.981 0.248,1.207 0.225,1.085 0.196,0.94 0.162,0.774 0.128,0.609 0.096,0.455 0.066,0.312 0.036,0.17 0.014,0.065 0,0"
             style="fill:#ffffff;fill-opacity:1;fill-rule:nonzero;stroke:none"
             id="path176" />
        </g>
        <g
           id="g178"
           transform="translate(289.0345,58.1473)">
          <path
             d="m 0,0 v -0.977 h -4.921 v 6.035 h 4.745 V 4.081 H -3.657 V 2.565 h 3.22 V 1.589 h -3.22 V 0 Z"
             style="fill:#ffffff;fill-opacity:1;fill-rule:nonzero;stroke:none"
             id="path180" />
        </g>
        <g
           id="g182"
           transform="translate(295.7142,61.3553)">
          <path
             d="m 0,0 c 0,0.288 -0.093,0.505 -0.278,0.65 -0.187,0.147 -0.465,0.219 -0.836,0.219 h -1.618 v -1.781 h 1.652 c 0.354,0 0.623,0.079 0.806,0.239 C -0.092,-0.513 0,-0.289 0,0 M -2.732,-1.894 V -4.185 H -3.996 V 1.85 h 3.015 C -0.262,1.85 0.294,1.695 0.685,1.386 1.076,1.075 1.271,0.631 1.271,0.051 1.271,-0.371 1.151,-0.736 0.912,-1.043 0.672,-1.35 0.348,-1.552 -0.061,-1.649 L 1.571,-4.185 H 0.149 l -1.4,2.291 z"
             style="fill:#ffffff;fill-opacity:1;fill-rule:nonzero;stroke:none"
             id="path184" />
        </g>
        <g
           id="g186"
           transform="translate(143.2279,45.2654)">
          <path
             d="m 0,0 c 0,-0.592 -0.219,-1.043 -0.657,-1.355 -0.439,-0.314 -1.082,-0.47 -1.93,-0.47 -1.527,0 -2.417,0.553 -2.668,1.658 l 1.221,0.201 c 0.082,-0.32 0.244,-0.552 0.483,-0.696 0.24,-0.145 0.572,-0.216 0.998,-0.216 0.443,0 0.774,0.066 0.994,0.201 0.22,0.134 0.33,0.335 0.33,0.604 0,0.171 -0.05,0.312 -0.15,0.424 -0.1,0.111 -0.243,0.204 -0.429,0.278 -0.09,0.037 -0.225,0.078 -0.402,0.122 -0.177,0.045 -0.396,0.094 -0.659,0.148 -0.303,0.072 -0.54,0.132 -0.711,0.182 -0.172,0.05 -0.309,0.099 -0.411,0.146 -0.104,0.046 -0.203,0.099 -0.3,0.156 -0.215,0.129 -0.382,0.3 -0.502,0.513 -0.119,0.215 -0.18,0.482 -0.18,0.802 0,0.545 0.205,0.963 0.616,1.252 0.409,0.29 1.004,0.435 1.788,0.435 0.748,0 1.309,-0.116 1.684,-0.351 C -0.509,3.8 -0.267,3.413 -0.158,2.873 L -1.384,2.706 c -0.062,0.26 -0.19,0.456 -0.383,0.587 -0.192,0.132 -0.468,0.197 -0.829,0.197 -0.383,0 -0.669,-0.06 -0.86,-0.179 -0.191,-0.121 -0.287,-0.3 -0.287,-0.54 0,-0.158 0.041,-0.286 0.122,-0.386 C -3.54,2.285 -3.419,2.199 -3.26,2.128 -3.108,2.06 -2.784,1.973 -2.287,1.867 -1.999,1.804 -1.75,1.745 -1.542,1.689 -1.333,1.634 -1.166,1.58 -1.041,1.528 -0.915,1.475 -0.803,1.417 -0.704,1.357 -0.606,1.297 -0.521,1.233 -0.45,1.164 -0.304,1.024 -0.192,0.858 -0.115,0.666 -0.039,0.473 0,0.251 0,0"
             style="fill:#ffffff;fill-opacity:1;fill-rule:nonzero;stroke:none"
             id="path188" />
        </g>
        <path
           d="m 147.175,43.526 h -1.264 v 6.034 h 1.264 z"
           style="fill:#ffffff;fill-opacity:1;fill-rule:nonzero;stroke:none"
           id="path190" />
        <g
           id="g192"
           transform="translate(155.0238,45.2654)">
          <path
             d="m 0,0 c 0,-0.592 -0.219,-1.043 -0.657,-1.355 -0.439,-0.314 -1.082,-0.47 -1.93,-0.47 -1.527,0 -2.417,0.553 -2.668,1.658 l 1.221,0.201 c 0.082,-0.32 0.244,-0.552 0.483,-0.696 0.24,-0.145 0.572,-0.216 0.998,-0.216 0.443,0 0.774,0.066 0.994,0.201 0.22,0.134 0.33,0.335 0.33,0.604 0,0.171 -0.05,0.312 -0.15,0.424 -0.1,0.111 -0.243,0.204 -0.429,0.278 -0.09,0.037 -0.225,0.078 -0.402,0.122 -0.177,0.045 -0.396,0.094 -0.659,0.148 -0.303,0.072 -0.54,0.132 -0.711,0.182 -0.172,0.05 -0.309,0.099 -0.411,0.146 -0.104,0.046 -0.203,0.099 -0.3,0.156 -0.215,0.129 -0.382,0.3 -0.502,0.513 -0.119,0.215 -0.18,0.482 -0.18,0.802 0,0.545 0.205,0.963 0.616,1.252 0.409,0.29 1.004,0.435 1.788,0.435 0.748,0 1.309,-0.116 1.684,-0.351 C -0.509,3.8 -0.267,3.413 -0.158,2.873 L -1.384,2.706 c -0.062,0.26 -0.19,0.456 -0.383,0.587 -0.192,0.132 -0.468,0.197 -0.829,0.197 -0.383,0 -0.669,-0.06 -0.86,-0.179 -0.191,-0.121 -0.287,-0.3 -0.287,-0.54 0,-0.158 0.041,-0.286 0.122,-0.386 C -3.54,2.285 -3.419,2.199 -3.26,2.128 -3.108,2.06 -2.784,1.973 -2.287,1.867 -1.999,1.804 -1.75,1.745 -1.542,1.689 -1.333,1.634 -1.166,1.58 -1.041,1.528 -0.915,1.475 -0.803,1.417 -0.704,1.357 -0.606,1.297 -0.521,1.233 -0.45,1.164 -0.304,1.024 -0.192,0.858 -0.115,0.666 -0.039,0.473 0,0.251 0,0"
             style="fill:#ffffff;fill-opacity:1;fill-rule:nonzero;stroke:none"
             id="path194" />
        </g>
        <g
           id="g196"
           transform="translate(160.431,48.5838)">
          <path
             d="M 0,0 V -5.058 H -1.264 V 0 H -3.212 V 0.977 H 1.953 L 1.953,0 Z"
             style="fill:#ffffff;fill-opacity:1;fill-rule:nonzero;stroke:none"
             id="path198" />
        </g>
        <g
           id="g200"
           transform="translate(169.7406,44.5027)">
          <path
             d="m 0,0 v -0.977 h -4.921 v 6.035 h 4.745 V 4.081 H -3.657 V 2.565 h 3.22 V 1.589 h -3.22 V 0 Z"
             style="fill:#ffffff;fill-opacity:1;fill-rule:nonzero;stroke:none"
             id="path202" />
        </g>
        <g
           id="g204"
           transform="translate(176.4202,47.7107)">
          <path
             d="m 0,0 c 0,0.288 -0.093,0.505 -0.278,0.65 -0.187,0.147 -0.465,0.219 -0.836,0.219 h -1.618 v -1.781 h 1.652 c 0.354,0 0.623,0.079 0.806,0.239 C -0.092,-0.513 0,-0.289 0,0 M -2.732,-1.894 V -4.185 H -3.996 V 1.85 h 3.015 C -0.262,1.85 0.294,1.695 0.685,1.386 1.076,1.075 1.271,0.631 1.271,0.051 1.271,-0.371 1.151,-0.736 0.912,-1.043 0.672,-1.35 0.348,-1.552 -0.061,-1.649 L 1.571,-4.185 H 0.149 l -1.4,2.291 z"
             style="fill:#ffffff;fill-opacity:1;fill-rule:nonzero;stroke:none"
             id="path206" />
        </g>
        <g
           id="g208"
           transform="translate(181.7767,46.1131)">
          <path
             d="M 0,0 V -2.587 H -1.264 V 3.447 H 0 V 1.045 H 2.629 V 3.447 H 3.893 V -2.587 H 2.629 l 0,2.587 z"
             style="fill:#ffffff;fill-opacity:1;fill-rule:nonzero;stroke:none"
             id="path210" />
        </g>
        <g
           id="g212"
           transform="translate(193.5228,44.5027)">
          <path
             d="m 0,0 v -0.977 h -4.921 v 6.035 h 4.745 V 4.081 H -3.657 V 2.565 h 3.22 V 1.589 h -3.22 V 0 Z"
             style="fill:#ffffff;fill-opacity:1;fill-rule:nonzero;stroke:none"
             id="path214" />
        </g>
        <g
           id="g216"
           transform="translate(200.2025,47.7107)">
          <path
             d="m 0,0 c 0,0.288 -0.093,0.505 -0.278,0.65 -0.187,0.147 -0.465,0.219 -0.836,0.219 h -1.618 v -1.781 h 1.652 c 0.354,0 0.623,0.079 0.806,0.239 C -0.092,-0.513 0,-0.289 0,0 M -2.732,-1.894 V -4.185 H -3.996 V 1.85 h 3.015 C -0.262,1.85 0.294,1.695 0.685,1.386 1.076,1.075 1.271,0.631 1.271,0.051 1.271,-0.371 1.151,-0.736 0.912,-1.043 0.672,-1.35 0.348,-1.552 -0.061,-1.649 L 1.571,-4.185 H 0.149 l -1.4,2.291 z"
             style="fill:#ffffff;fill-opacity:1;fill-rule:nonzero;stroke:none"
             id="path218" />
        </g>
        <g
           id="g220"
           transform="translate(208.4017,46.5887)">
          <path
             d="m 0,0 c 0,0.647 -0.169,1.143 -0.506,1.483 -0.337,0.342 -0.817,0.512 -1.443,0.512 h -0.895 v -4.081 h 1.071 c 0.362,0 0.675,0.085 0.94,0.255 0.264,0.17 0.469,0.41 0.614,0.722 C -0.073,-0.798 0,-0.429 0,0 M 1.271,0 C 1.271,-0.646 1.146,-1.196 0.896,-1.653 0.647,-2.11 0.302,-2.459 -0.14,-2.7 -0.581,-2.942 -1.09,-3.063 -1.666,-3.063 h -2.441 v 6.035 h 2.184 c 1.016,0 1.803,-0.256 2.36,-0.769 C 0.993,1.69 1.271,0.956 1.271,0"
             style="fill:#ffffff;fill-opacity:1;fill-rule:nonzero;stroke:none"
             id="path222" />
        </g>
        <g
           id="g224"
           transform="translate(221.4954,45.2654)">
          <path
             d="m 0,0 c 0,-0.592 -0.219,-1.043 -0.657,-1.355 -0.439,-0.314 -1.082,-0.47 -1.93,-0.47 -1.527,0 -2.417,0.553 -2.668,1.658 l 1.221,0.201 c 0.082,-0.32 0.244,-0.552 0.483,-0.696 0.24,-0.145 0.572,-0.216 0.998,-0.216 0.443,0 0.774,0.066 0.994,0.201 0.22,0.134 0.33,0.335 0.33,0.604 0,0.171 -0.05,0.312 -0.15,0.424 -0.1,0.111 -0.243,0.204 -0.429,0.278 -0.09,0.037 -0.225,0.078 -0.402,0.122 -0.177,0.045 -0.396,0.094 -0.659,0.148 -0.303,0.072 -0.54,0.132 -0.711,0.182 -0.172,0.05 -0.309,0.099 -0.411,0.146 -0.104,0.046 -0.203,0.099 -0.3,0.156 -0.215,0.129 -0.382,0.3 -0.502,0.513 -0.119,0.215 -0.18,0.482 -0.18,0.802 0,0.545 0.205,0.963 0.616,1.252 0.409,0.29 1.004,0.435 1.788,0.435 0.748,0 1.309,-0.116 1.684,-0.351 C -0.509,3.8 -0.267,3.413 -0.158,2.873 L -1.384,2.706 c -0.062,0.26 -0.19,0.456 -0.383,0.587 -0.192,0.132 -0.468,0.197 -0.829,0.197 -0.383,0 -0.669,-0.06 -0.86,-0.179 -0.191,-0.121 -0.287,-0.3 -0.287,-0.54 0,-0.158 0.041,-0.286 0.122,-0.386 C -3.54,2.285 -3.419,2.199 -3.26,2.128 -3.108,2.06 -2.784,1.973 -2.287,1.867 -1.999,1.804 -1.75,1.745 -1.542,1.689 -1.333,1.634 -1.166,1.58 -1.041,1.528 -0.915,1.475 -0.803,1.417 -0.704,1.357 -0.606,1.297 -0.521,1.233 -0.45,1.164 -0.304,1.024 -0.192,0.858 -0.115,0.666 -0.039,0.473 0,0.251 0,0"
             style="fill:#ffffff;fill-opacity:1;fill-rule:nonzero;stroke:none"
             id="path226" />
        </g>
        <g
           id="g228"
           transform="translate(226.9027,48.5838)">
          <path
             d="M 0,0 V -5.058 H -1.264 V 0 H -3.212 V 0.977 H 1.953 L 1.953,0 Z"
             style="fill:#ffffff;fill-opacity:1;fill-rule:nonzero;stroke:none"
             id="path230" />
        </g>
        <g
           id="g232"
           transform="translate(235.2874,47.7107)">
          <path
             d="m 0,0 c 0,0.288 -0.093,0.505 -0.278,0.65 -0.187,0.147 -0.465,0.219 -0.836,0.219 h -1.618 v -1.781 h 1.652 c 0.354,0 0.623,0.079 0.806,0.239 C -0.092,-0.513 0,-0.289 0,0 M -2.732,-1.894 V -4.185 H -3.996 V 1.85 h 3.015 C -0.262,1.85 0.294,1.695 0.685,1.386 1.076,1.075 1.271,0.631 1.271,0.051 1.271,-0.371 1.151,-0.736 0.912,-1.043 0.672,-1.35 0.348,-1.552 -0.061,-1.649 L 1.571,-4.185 H 0.149 l -1.4,2.291 z"
             style="fill:#ffffff;fill-opacity:1;fill-rule:nonzero;stroke:none"
             id="path234" />
        </g>
        <g
           id="g236"
           transform="translate(243.9583,46.5711)">
          <path
             d="m 0,0 c 0,0.651 -0.154,1.161 -0.463,1.531 -0.308,0.37 -0.74,0.555 -1.297,0.555 -0.565,0 -1.003,-0.184 -1.31,-0.551 C -3.379,1.169 -3.533,0.657 -3.533,0 c 0,-0.439 0.071,-0.819 0.214,-1.139 0.142,-0.32 0.346,-0.566 0.61,-0.739 0.265,-0.173 0.577,-0.259 0.94,-0.259 0.566,0 1.001,0.186 1.309,0.557 C -0.153,-1.209 0,-0.683 0,0 m 1.289,0 c 0,-0.628 -0.126,-1.177 -0.379,-1.646 -0.253,-0.47 -0.608,-0.835 -1.066,-1.095 -0.458,-0.26 -0.996,-0.39 -1.613,-0.39 -0.63,0 -1.173,0.127 -1.627,0.379 -0.455,0.253 -0.802,0.613 -1.045,1.082 -0.243,0.468 -0.365,1.024 -0.365,1.67 0,0.646 0.121,1.198 0.363,1.657 0.241,0.46 0.589,0.813 1.045,1.057 0.455,0.243 1.002,0.365 1.638,0.365 0.64,0 1.186,-0.123 1.64,-0.37 C 0.334,2.462 0.683,2.108 0.925,1.649 1.168,1.189 1.289,0.64 1.289,0"
             style="fill:#ffffff;fill-opacity:1;fill-rule:nonzero;stroke:none"
             id="path238" />
        </g>
        <g
           id="g240"
           transform="translate(249.0784,47.0848)">
          <path
             d="M 0,0 V -3.559 H -1.122 V 2.476 H 0.321 L 2.989,-2.21 C 2.938,-1.775 2.912,-1.383 2.912,-1.031 V 2.476 H 4.034 V -3.559 H 2.553 l -2.63,4.647 C -0.052,0.862 -0.032,0.659 -0.02,0.478 -0.007,0.297 0,0.138 0,0"
             style="fill:#ffffff;fill-opacity:1;fill-rule:nonzero;stroke:none"
             id="path242" />
        </g>
        <g
           id="g244"
           transform="translate(258.9105,44.4295)">
          <path
             d="M 0,0 C 0.328,0 0.646,0.048 0.955,0.144 1.264,0.239 1.502,0.361 1.67,0.51 V 1.345 H 0.197 V 2.279 H 2.826 V 0.061 C 2.507,-0.268 2.091,-0.525 1.578,-0.711 1.065,-0.896 0.528,-0.989 -0.034,-0.989 c -0.654,0 -1.209,0.122 -1.664,0.366 -0.455,0.244 -0.802,0.6 -1.039,1.066 -0.237,0.467 -0.356,1.034 -0.356,1.699 0,0.994 0.266,1.755 0.797,2.285 0.531,0.529 1.295,0.794 2.291,0.794 0.709,0 1.288,-0.13 1.739,-0.392 C 2.186,4.568 2.507,4.175 2.698,3.649 L 1.533,3.298 C 1.407,3.604 1.21,3.835 0.942,3.992 0.674,4.149 0.358,4.228 -0.005,4.228 -0.599,4.228 -1.05,4.048 -1.357,3.688 -1.666,3.328 -1.82,2.813 -1.82,2.142 -1.82,1.459 -1.661,0.932 -1.343,0.56 -1.024,0.187 -0.577,0 0,0"
             style="fill:#ffffff;fill-opacity:1;fill-rule:nonzero;stroke:none"
             id="path246" />
        </g>
        <g
           id="g248"
           transform="translate(200,397.9112)">
          <path
             d="m 0,0 c -109.129,0 -197.912,-88.783 -197.912,-197.911 0,-109.129 88.783,-197.912 197.912,-197.912 109.129,0 197.912,88.783 197.912,197.912 C 197.912,-88.783 109.129,0 0,0 m 0,-397.911 c -26.999,0 -53.192,5.288 -77.849,15.717 -23.816,10.073 -45.205,24.494 -63.572,42.861 -18.368,18.368 -32.788,39.756 -42.862,63.573 -10.429,24.657 -15.717,50.849 -15.717,77.849 0,26.999 5.288,53.191 15.717,77.849 10.074,23.816 24.494,45.204 42.862,63.572 18.367,18.367 39.756,32.788 63.572,42.861 C -53.192,-3.2 -26.999,2.088 0,2.088 c 26.999,0 53.192,-5.288 77.849,-15.717 23.816,-10.073 45.205,-24.494 63.572,-42.861 18.368,-18.368 32.788,-39.756 42.862,-63.572 10.429,-24.658 15.717,-50.85 15.717,-77.849 0,-27 -5.288,-53.192 -15.717,-77.849 -10.074,-23.817 -24.494,-45.205 -42.862,-63.573 C 123.054,-357.7 101.665,-372.121 77.849,-382.194 53.192,-392.623 26.999,-397.911 0,-397.911"
             style="fill:#000000;fill-opacity:1;fill-rule:nonzero;stroke:none"
             id="path250" />
        </g>
      </g>
    </g>
  </g>
</svg>
